<svg width="468" height="93" viewBox="0 0 468 93" fill="none" xmlns="http://www.w3.org/2000/svg">
<path d="M37.375 91.25C31.9583 91.25 27.7083 89.7917 24.625 86.875C21.625 83.9583 20.125 79.875 20.125 74.625V30H2.16067e-07V22.5H20.125V3.12499H28.375V22.5H56.875V30H28.375V74.625C28.375 77.5417 29.1667 79.7917 30.75 81.375C32.3333 82.9583 34.5417 83.75 37.375 83.75H56.25V91.25H37.375ZM74.5762 91.25V-2.38419e-06H82.8262V34.5C83.7428 30.3333 85.8678 27.0833 89.2012 24.75C92.5345 22.4167 96.6595 21.25 101.576 21.25C108.41 21.25 113.868 23.4167 117.951 27.75C122.035 32.0833 124.076 37.9167 124.076 45.25V91.25H115.826V46.5C115.826 40.75 114.368 36.2917 111.451 33.125C108.535 29.875 104.576 28.25 99.5762 28.25C94.4095 28.25 90.3262 29.9167 87.3262 33.25C84.3262 36.5 82.8262 41 82.8262 46.75V91.25H74.5762ZM145.902 91.25V22.5H154.152V34.125C155.236 30.125 157.361 27 160.527 24.75C163.694 22.4167 167.694 21.25 172.527 21.25C179.944 21.25 185.527 23.4167 189.277 27.75C193.111 32 195.027 38 195.027 45.75V51.875H186.777V45.75C186.777 34.1667 181.361 28.375 170.527 28.375C165.194 28.375 161.111 29.9583 158.277 33.125C155.527 36.2917 154.152 40.8333 154.152 46.75V91.25H145.902ZM236.729 92.5C228.812 92.5 222.562 90.1667 217.979 85.5C213.479 80.8333 211.229 74.5 211.229 66.5V47.25C211.229 39.25 213.52 32.9167 218.104 28.25C222.687 23.5833 228.895 21.25 236.729 21.25C244.479 21.25 250.604 23.5833 255.104 28.25C259.687 32.8333 261.979 39 261.979 46.75V58.75H219.354V67C219.354 72.5833 220.854 77.0417 223.854 80.375C226.937 83.625 231.229 85.25 236.729 85.25C241.145 85.25 244.854 84.2917 247.854 82.375C250.854 80.375 252.645 77.625 253.229 74.125H261.479C260.645 79.7917 257.979 84.2917 253.479 87.625C249.062 90.875 243.479 92.5 236.729 92.5ZM219.354 52H253.854V46.75C253.854 41 252.354 36.5 249.354 33.25C246.354 29.9167 242.145 28.25 236.729 28.25C231.145 28.25 226.854 29.875 223.854 33.125C220.854 36.375 219.354 40.9167 219.354 46.75V52ZM280.68 91.25V22.5H288.93V34.375C289.93 30.2917 292.055 27.0833 295.305 24.75C298.555 22.4167 302.68 21.25 307.68 21.25C314.513 21.25 319.971 23.4167 324.055 27.75C328.138 32.0833 330.18 37.9167 330.18 45.25V91.25H321.93V46.5C321.93 40.75 320.471 36.2917 317.555 33.125C314.638 29.875 310.68 28.25 305.68 28.25C300.513 28.25 296.43 29.9167 293.43 33.25C290.43 36.5 288.93 41 288.93 46.75V91.25H280.68ZM370.631 92.375C363.798 92.375 358.298 90.6667 354.131 87.25C350.048 83.8333 347.839 79.2917 347.506 73.625H355.756C356.173 77.0417 357.673 79.8333 360.256 82C362.923 84.0833 366.381 85.125 370.631 85.125H378.256C382.673 85.125 386.131 84.0417 388.631 81.875C391.131 79.7083 392.381 76.75 392.381 73C392.381 69.6667 391.464 66.875 389.631 64.625C387.881 62.2917 385.339 60.9167 382.006 60.5L365.381 58.25C359.964 57.5 355.756 55.625 352.756 52.625C349.839 49.5417 348.381 45.4167 348.381 40.25C348.381 34.4167 350.381 29.8333 354.381 26.5C358.381 23.0833 363.839 21.375 370.756 21.375H377.006C383.423 21.375 388.631 22.9583 392.631 26.125C396.714 29.2917 399.006 33.4583 399.506 38.625H391.256C390.839 35.7083 389.339 33.2917 386.756 31.375C384.256 29.4583 381.006 28.5 377.006 28.5H370.756C366.339 28.5 362.881 29.5417 360.381 31.625C357.881 33.7083 356.631 36.5417 356.631 40.125C356.631 46.125 360.131 49.5833 367.131 50.5L383.131 52.625C388.631 53.375 392.881 55.5417 395.881 59.125C398.964 62.625 400.506 67.0833 400.506 72.5C400.506 78.6667 398.506 83.5417 394.506 87.125C390.589 90.625 385.173 92.375 378.256 92.375H370.631ZM437.707 92.5C430.624 92.5 425.04 90.5417 420.957 86.625C416.874 82.625 414.832 77.5 414.832 71.25C414.832 65.1667 416.832 60.2083 420.832 56.375C424.832 52.5417 430.082 50.625 436.582 50.625H459.082V44.375C459.082 33.7917 453.749 28.5 443.082 28.5C438.165 28.5 434.207 29.5417 431.207 31.625C428.29 33.7083 426.707 36.5 426.457 40H418.207C418.54 34.5 420.915 30 425.332 26.5C429.832 23 435.749 21.25 443.082 21.25C450.915 21.25 456.915 23.25 461.082 27.25C465.249 31.25 467.332 36.9167 467.332 44.25V91.25H459.207V79.375C458.04 83.375 455.54 86.5833 451.707 89C447.957 91.3333 443.29 92.5 437.707 92.5ZM439.957 85.375C445.79 85.375 450.415 83.875 453.832 80.875C457.332 77.875 459.082 73.8333 459.082 68.75V57.5H436.957C432.874 57.5 429.54 58.75 426.957 61.25C424.457 63.75 423.207 66.9167 423.207 70.75C423.207 75.1667 424.707 78.7083 427.707 81.375C430.707 84.0417 434.79 85.375 439.957 85.375Z" fill="white"/>
</svg>
